<svg xmlns="http://www.w3.org/2000/svg" xmlns:xlink="http://www.w3.org/1999/xlink" width="302" zoomAndPan="magnify" viewBox="0 0 226.5 73.499998" height="98" preserveAspectRatio="xMidYMid meet" version="1.0"><defs><g/><clipPath id="7b5d232cf9"><path d="M 195 15 L 225.488281 15 L 225.488281 55 L 195 55 Z M 195 15 " clip-rule="nonzero"/></clipPath></defs><g fill="#ffffff" fill-opacity="1"><g transform="translate(0.516896, 54.30674)"><g><path d="M 48.671875 0 L 48.96875 -0.96875 C 48.320312 -0.96875 47.847656 -1.066406 47.546875 -1.265625 C 47.253906 -1.460938 47.1875 -1.84375 47.34375 -2.40625 L 56.625 -36.203125 C 56.78125 -36.765625 57.128906 -37.144531 57.671875 -37.34375 C 58.210938 -37.539062 59.046875 -37.640625 60.171875 -37.640625 L 60.421875 -38.609375 L 51.984375 -38.609375 L 51.734375 -37.640625 C 52.859375 -37.640625 53.628906 -37.550781 54.046875 -37.375 C 54.472656 -37.195312 54.609375 -36.828125 54.453125 -36.265625 L 45.109375 -2.34375 C 45.109375 -2.226562 45.070312 -2.128906 45 -2.046875 C 44.957031 -2.085938 44.9375 -2.144531 44.9375 -2.21875 C 44.9375 -2.300781 44.914062 -2.363281 44.875 -2.40625 L 35.59375 -36.203125 C 35.4375 -36.765625 35.566406 -37.144531 35.984375 -37.34375 C 36.410156 -37.539062 37.1875 -37.640625 38.3125 -37.640625 L 38.0625 -38.609375 L 24.875 -38.609375 L 25.171875 -37.640625 C 26.296875 -37.640625 27.117188 -37.539062 27.640625 -37.34375 C 28.171875 -37.144531 28.492188 -36.785156 28.609375 -36.265625 L 29.453125 -33.4375 L 20.90625 -2.34375 C 20.863281 -2.300781 20.84375 -2.25 20.84375 -2.1875 C 20.84375 -2.132812 20.820312 -2.085938 20.78125 -2.046875 C 20.695312 -2.128906 20.65625 -2.25 20.65625 -2.40625 L 11.328125 -36.203125 C 11.160156 -36.765625 11.296875 -37.144531 11.734375 -37.34375 C 12.179688 -37.539062 12.96875 -37.640625 14.09375 -37.640625 L 13.796875 -38.609375 L 0.65625 -38.609375 L 0.90625 -37.640625 C 3.03125 -37.640625 4.191406 -37.179688 4.390625 -36.265625 L 13.4375 -3.4375 C 13.675781 -2.707031 14.195312 -1.953125 15 -1.171875 C 15.800781 -0.390625 17.003906 0 18.609375 0 L 24.453125 0 L 24.75 -0.96875 C 24.113281 -0.96875 23.644531 -1.066406 23.34375 -1.265625 C 23.039062 -1.460938 22.96875 -1.84375 23.125 -2.40625 L 30.53125 -29.390625 L 37.640625 -3.4375 C 37.921875 -2.707031 38.460938 -1.953125 39.265625 -1.171875 C 40.078125 -0.390625 41.265625 0 42.828125 0 Z M 48.671875 0 "/></g></g></g><g fill="#ffffff" fill-opacity="1"><g transform="translate(61.647318, 54.30674)"><g><path d="M 9.15625 -12.34375 L 22.53125 -12.34375 L 25.234375 -2.40625 C 25.398438 -1.84375 25.269531 -1.460938 24.84375 -1.265625 C 24.425781 -1.066406 23.65625 -0.96875 22.53125 -0.96875 L 22.765625 0 L 35.953125 0 L 35.65625 -0.96875 C 34.53125 -0.96875 33.707031 -1.066406 33.1875 -1.265625 C 32.664062 -1.460938 32.328125 -1.820312 32.171875 -2.34375 L 23.1875 -35.171875 C 22.90625 -35.898438 22.363281 -36.65625 21.5625 -37.4375 C 20.757812 -38.21875 19.578125 -38.609375 18.015625 -38.609375 L 11.015625 -38.609375 L 10.71875 -37.640625 C 11.882812 -37.640625 12.675781 -37.539062 13.09375 -37.34375 C 13.519531 -37.144531 13.65625 -36.765625 13.5 -36.203125 L 4.21875 -2.40625 C 4.050781 -1.882812 3.707031 -1.515625 3.1875 -1.296875 C 2.664062 -1.078125 1.820312 -0.96875 0.65625 -0.96875 L 0.421875 0 L 8.859375 0 L 9.09375 -0.96875 C 7.96875 -0.96875 7.191406 -1.066406 6.765625 -1.265625 C 6.347656 -1.460938 6.222656 -1.820312 6.390625 -2.34375 Z M 15.84375 -36.5625 C 15.882812 -36.519531 15.90625 -36.46875 15.90625 -36.40625 C 15.90625 -36.351562 15.925781 -36.285156 15.96875 -36.203125 L 22.21875 -13.375 L 9.390625 -13.375 L 15.71875 -36.265625 C 15.71875 -36.378906 15.757812 -36.476562 15.84375 -36.5625 Z M 15.84375 -36.5625 "/></g></g></g><g fill="#ffffff" fill-opacity="1"><g transform="translate(98.02443, 54.30674)"><g><path d="M 32.640625 -31.859375 L 31.4375 -38.609375 L 1.5625 -38.609375 L 0.359375 -31.859375 L 1.75 -31.859375 C 1.90625 -32.347656 2.113281 -32.910156 2.375 -33.546875 C 2.632812 -34.191406 3.054688 -34.832031 3.640625 -35.46875 C 4.222656 -36.113281 5.023438 -36.632812 6.046875 -37.03125 C 7.078125 -37.4375 8.4375 -37.625 10.125 -37.59375 C 11.164062 -37.550781 11.894531 -37.378906 12.3125 -37.078125 C 12.738281 -36.773438 12.972656 -36.222656 13.015625 -35.421875 L 13.015625 -2.40625 C 13.015625 -1.84375 12.78125 -1.460938 12.3125 -1.265625 C 11.851562 -1.066406 11.039062 -0.96875 9.875 -0.96875 L 9.875 0 L 23.0625 0 L 23.0625 -0.96875 C 21.945312 -0.96875 21.144531 -1.066406 20.65625 -1.265625 C 20.175781 -1.460938 19.9375 -1.820312 19.9375 -2.34375 L 20 -35.421875 C 20.039062 -36.222656 20.28125 -36.773438 20.71875 -37.078125 C 21.164062 -37.378906 21.890625 -37.550781 22.890625 -37.59375 C 24.578125 -37.625 25.929688 -37.4375 26.953125 -37.03125 C 27.972656 -36.632812 28.773438 -36.113281 29.359375 -35.46875 C 29.941406 -34.832031 30.375 -34.191406 30.65625 -33.546875 C 30.9375 -32.910156 31.160156 -32.347656 31.328125 -31.859375 Z M 32.640625 -31.859375 "/></g></g></g><g fill="#ffffff" fill-opacity="1"><g transform="translate(131.089058, 54.30674)"><g><path d="M 0.359375 -38.609375 L 0.359375 -37.640625 C 1.523438 -37.640625 2.335938 -37.539062 2.796875 -37.34375 C 3.265625 -37.144531 3.5 -36.765625 3.5 -36.203125 L 3.5 -2.40625 C 3.5 -1.84375 3.265625 -1.460938 2.796875 -1.265625 C 2.335938 -1.066406 1.523438 -0.96875 0.359375 -0.96875 L 0.359375 0 L 13.546875 0 L 13.546875 -0.96875 C 12.421875 -0.96875 11.617188 -1.066406 11.140625 -1.265625 C 10.660156 -1.460938 10.421875 -1.820312 10.421875 -2.34375 L 10.421875 -13.4375 C 11.140625 -13.476562 11.8125 -13.5 12.4375 -13.5 C 13.0625 -13.5 13.394531 -13.5 13.4375 -13.5 C 14.113281 -13.5 14.753906 -13.503906 15.359375 -13.515625 C 15.960938 -13.535156 16.523438 -13.566406 17.046875 -13.609375 L 21.328125 -2.40625 C 21.523438 -1.84375 21.429688 -1.460938 21.046875 -1.265625 C 20.671875 -1.066406 19.898438 -0.96875 18.734375 -0.96875 L 19.09375 0 L 32.28125 0 L 31.921875 -0.96875 C 30.796875 -0.96875 29.960938 -1.066406 29.421875 -1.265625 C 28.878906 -1.460938 28.507812 -1.820312 28.3125 -2.34375 L 23.546875 -14.8125 C 26.273438 -15.738281 28.253906 -17.113281 29.484375 -18.9375 C 30.710938 -20.769531 31.34375 -23.128906 31.375 -26.015625 C 31.375 -29.953125 30.109375 -33.035156 27.578125 -35.265625 C 25.054688 -37.492188 21.125 -38.609375 15.78125 -38.609375 Z M 13.5 -37.640625 C 15.820312 -37.640625 17.796875 -37.347656 19.421875 -36.765625 C 21.046875 -36.191406 22.289062 -35.050781 23.15625 -33.34375 C 24.019531 -31.632812 24.453125 -29.050781 24.453125 -25.59375 C 24.453125 -23.070312 24.0625 -21.085938 23.28125 -19.640625 C 22.5 -18.191406 21.523438 -17.113281 20.359375 -16.40625 C 19.191406 -15.707031 17.984375 -15.238281 16.734375 -15 C 15.492188 -14.757812 14.414062 -14.597656 13.5 -14.515625 C 13.414062 -14.515625 13.0625 -14.503906 12.4375 -14.484375 C 11.8125 -14.460938 11.140625 -14.453125 10.421875 -14.453125 L 10.421875 -36.265625 C 10.460938 -36.785156 10.691406 -37.144531 11.109375 -37.34375 C 11.535156 -37.539062 12.332031 -37.640625 13.5 -37.640625 Z M 13.5 -37.640625 "/></g></g></g><g fill="#ffffff" fill-opacity="1"><g transform="translate(163.732104, 54.30674)"><g><path d="M 30.59375 -31.859375 L 29.390625 -38.609375 L 0.421875 -38.609375 L 0.421875 -37.640625 C 1.585938 -37.640625 2.398438 -37.539062 2.859375 -37.34375 C 3.316406 -37.144531 3.546875 -36.765625 3.546875 -36.203125 L 3.546875 -2.40625 C 3.546875 -1.84375 3.316406 -1.460938 2.859375 -1.265625 C 2.398438 -1.066406 1.585938 -0.96875 0.421875 -0.96875 L 0.421875 0 L 29.390625 0 L 30.59375 -6.75 L 29.28125 -6.75 C 29.070312 -6.101562 28.726562 -5.335938 28.25 -4.453125 C 27.769531 -3.566406 26.96875 -2.789062 25.84375 -2.125 C 24.71875 -1.46875 23.03125 -1.160156 20.78125 -1.203125 L 12.109375 -1.078125 C 11.023438 -1.203125 10.484375 -1.625 10.484375 -2.34375 L 10.484375 -22.34375 L 15.90625 -22.34375 C 16.90625 -22.300781 17.625 -21.957031 18.0625 -21.3125 C 18.507812 -20.675781 18.734375 -20.078125 18.734375 -19.515625 L 20.0625 -19.515625 L 20.0625 -26.375 L 18.734375 -26.375 C 18.734375 -25.820312 18.507812 -25.234375 18.0625 -24.609375 C 17.625 -23.984375 16.90625 -23.628906 15.90625 -23.546875 L 10.484375 -23.546875 L 10.484375 -36.265625 C 10.484375 -36.828125 10.722656 -37.175781 11.203125 -37.3125 C 11.679688 -37.457031 12.484375 -37.53125 13.609375 -37.53125 L 20.78125 -37.40625 C 22.46875 -37.445312 23.820312 -37.265625 24.84375 -36.859375 C 25.863281 -36.460938 26.675781 -35.960938 27.28125 -35.359375 C 27.882812 -34.753906 28.328125 -34.140625 28.609375 -33.515625 C 28.890625 -32.898438 29.113281 -32.347656 29.28125 -31.859375 Z M 30.59375 -31.859375 "/></g></g></g><g clip-path="url(#7b5d232cf9)"><g fill="#ffffff" fill-opacity="1"><g transform="translate(194.749013, 54.30674)"><g><path d="M 30.59375 -31.859375 L 29.390625 -38.609375 L 0.421875 -38.609375 L 0.421875 -37.640625 C 1.585938 -37.640625 2.398438 -37.539062 2.859375 -37.34375 C 3.316406 -37.144531 3.546875 -36.765625 3.546875 -36.203125 L 3.546875 -2.40625 C 3.546875 -1.84375 3.316406 -1.460938 2.859375 -1.265625 C 2.398438 -1.066406 1.585938 -0.96875 0.421875 -0.96875 L 0.421875 0 L 29.390625 0 L 30.59375 -6.75 L 29.28125 -6.75 C 29.070312 -6.101562 28.726562 -5.335938 28.25 -4.453125 C 27.769531 -3.566406 26.96875 -2.789062 25.84375 -2.125 C 24.71875 -1.46875 23.03125 -1.160156 20.78125 -1.203125 L 12.109375 -1.078125 C 11.023438 -1.203125 10.484375 -1.625 10.484375 -2.34375 L 10.484375 -22.34375 L 15.90625 -22.34375 C 16.90625 -22.300781 17.625 -21.957031 18.0625 -21.3125 C 18.507812 -20.675781 18.734375 -20.078125 18.734375 -19.515625 L 20.0625 -19.515625 L 20.0625 -26.375 L 18.734375 -26.375 C 18.734375 -25.820312 18.507812 -25.234375 18.0625 -24.609375 C 17.625 -23.984375 16.90625 -23.628906 15.90625 -23.546875 L 10.484375 -23.546875 L 10.484375 -36.265625 C 10.484375 -36.828125 10.722656 -37.175781 11.203125 -37.3125 C 11.679688 -37.457031 12.484375 -37.53125 13.609375 -37.53125 L 20.78125 -37.40625 C 22.46875 -37.445312 23.820312 -37.265625 24.84375 -36.859375 C 25.863281 -36.460938 26.675781 -35.960938 27.28125 -35.359375 C 27.882812 -34.753906 28.328125 -34.140625 28.609375 -33.515625 C 28.890625 -32.898438 29.113281 -32.347656 29.28125 -31.859375 Z M 30.59375 -31.859375 "/></g></g></g></g></svg>